<svg id="Camada_1" data-name="Camada 1" xmlns="http://www.w3.org/2000/svg" xmlns:xlink="http://www.w3.org/1999/xlink" viewBox="0 0 5718.33 235"><defs><style>.cls-1{fill:none;}.cls-2{fill:#fff;}.cls-3{fill:#0f1313;}.cls-4{opacity:0.1;fill:url(#Novo_padrão);}</style><pattern id="Novo_padrão" data-name="Novo padrão" width="303.45" height="341.2" patternTransform="translate(112.36 64)" patternUnits="userSpaceOnUse" viewBox="0 0 303.45 341.2"><rect class="cls-1" width="303.45" height="341.2"/><polygon class="cls-2" points="259.16 311.05 252.59 340.2 261.74 339.06 256.02 371.35 257.16 371.35 278.45 323.63 267.88 324.77 271.88 311.05 259.16 311.05"/><polygon class="cls-2" points="183.3 311.05 176.73 340.2 185.87 339.06 180.16 371.35 181.3 371.35 202.59 323.63 192.02 324.77 196.02 311.05 183.3 311.05"/><polygon class="cls-2" points="107.44 311.05 100.86 340.2 110.01 339.06 104.29 371.35 105.44 371.35 126.73 323.63 116.15 324.77 120.15 311.05 107.44 311.05"/><polygon class="cls-2" points="31.57 311.05 25 340.2 34.15 339.06 28.43 371.35 29.57 371.35 50.86 323.63 40.29 324.77 44.29 311.05 31.57 311.05"/><polygon class="cls-2" points="240.2 225.75 233.63 254.9 242.77 253.76 237.05 286.05 238.2 286.05 259.49 238.33 248.91 239.47 252.91 225.75 240.2 225.75"/><polygon class="cls-2" points="164.33 225.75 157.76 254.9 166.91 253.76 161.19 286.05 162.33 286.05 183.63 238.33 173.05 239.47 177.05 225.75 164.33 225.75"/><polygon class="cls-2" points="88.47 225.75 81.9 254.9 91.04 253.76 85.33 286.05 86.47 286.05 107.76 238.33 97.19 239.47 101.19 225.75 88.47 225.75"/><polygon class="cls-2" points="12.61 225.75 6.03 254.9 15.18 253.76 9.46 286.05 10.61 286.05 31.9 238.33 21.32 239.47 25.32 225.75 12.61 225.75"/><polygon class="cls-2" points="297.1 140.45 290.52 169.6 299.67 168.46 293.95 200.75 295.1 200.75 316.39 153.03 305.81 154.17 309.81 140.45 297.1 140.45"/><polygon class="cls-2" points="221.23 140.45 214.66 169.6 223.8 168.46 218.09 200.75 219.23 200.75 240.52 153.03 229.95 154.17 233.95 140.45 221.23 140.45"/><polygon class="cls-2" points="145.37 140.45 138.79 169.6 147.94 168.46 142.22 200.75 143.37 200.75 164.66 153.03 154.09 154.17 158.09 140.45 145.37 140.45"/><polygon class="cls-2" points="69.5 140.45 62.93 169.6 72.08 168.46 66.36 200.75 67.5 200.75 88.8 153.03 78.22 154.17 82.22 140.45 69.5 140.45"/><polygon class="cls-2" points="-6.36 140.45 -12.93 169.6 -3.79 168.46 -9.5 200.75 -8.36 200.75 12.93 153.03 2.36 154.17 6.36 140.45 -6.36 140.45"/><polygon class="cls-2" points="278.13 55.15 271.56 84.3 280.7 83.16 274.99 115.45 276.13 115.45 297.42 67.72 286.85 68.87 290.85 55.15 278.13 55.15"/><polygon class="cls-2" points="202.27 55.15 195.69 84.3 204.84 83.16 199.12 115.45 200.27 115.45 221.56 67.72 210.98 68.87 214.98 55.15 202.27 55.15"/><polygon class="cls-2" points="126.4 55.15 119.83 84.3 128.97 83.16 123.26 115.45 124.4 115.45 145.69 67.72 135.12 68.87 139.12 55.15 126.4 55.15"/><polygon class="cls-2" points="50.54 55.15 43.97 84.3 53.11 83.16 47.4 115.45 48.54 115.45 69.83 67.72 59.26 68.87 63.26 55.15 50.54 55.15"/><polygon class="cls-2" points="259.16 -30.15 252.59 -1 261.74 -2.14 256.02 30.15 257.16 30.15 278.45 -17.58 267.88 -16.43 271.88 -30.15 259.16 -30.15"/><polygon class="cls-2" points="183.3 -30.15 176.73 -1 185.87 -2.14 180.16 30.15 181.3 30.15 202.59 -17.58 192.02 -16.43 196.02 -30.15 183.3 -30.15"/><polygon class="cls-2" points="107.44 -30.15 100.86 -1 110.01 -2.14 104.29 30.15 105.44 30.15 126.73 -17.58 116.15 -16.43 120.15 -30.15 107.44 -30.15"/><polygon class="cls-2" points="31.57 -30.15 25 -1 34.15 -2.14 28.43 30.15 29.57 30.15 50.86 -17.58 40.29 -16.43 44.29 -30.15 31.57 -30.15"/></pattern></defs><title>Vetor</title><rect class="cls-3" width="5718.33" height="235"/><rect class="cls-4" width="5718.33" height="235"/></svg>